<?xml version="1.0" standalone="no"?><svg xmlns="http://www.w3.org/2000/svg" viewBox="0 0 1440 320"><path fill="#B9A2D4" fill-opacity="0.3" d="M0,288L30,288C60,288,120,288,180,256C240,224,300,160,360,128C420,96,480,96,540,133.3C600,171,660,245,720,282.7C780,320,840,320,900,309.3C960,299,1020,277,1080,272C1140,267,1200,277,1260,245.3C1320,213,1380,139,1410,101.3L1440,64L1440,320L1410,320C1380,320,1320,320,1260,320C1200,320,1140,320,1080,320C1020,320,960,320,900,320C840,320,780,320,720,320C660,320,600,320,540,320C480,320,420,320,360,320C300,320,240,320,180,320C120,320,60,320,30,320L0,320Z"></path></svg>